<?xml version="1.0" encoding="UTF-8" standalone="no"?>
<!-- Created with Inkscape (http://www.inkscape.org/) -->

<svg
   xmlns:dc="http://purl.org/dc/elements/1.1/"
   xmlns:cc="http://creativecommons.org/ns#"
   xmlns:rdf="http://www.w3.org/1999/02/22-rdf-syntax-ns#"
   xmlns:svg="http://www.w3.org/2000/svg"
   xmlns="http://www.w3.org/2000/svg"
   xmlns:sodipodi="http://sodipodi.sourceforge.net/DTD/sodipodi-0.dtd"
   xmlns:inkscape="http://www.inkscape.org/namespaces/inkscape"
   width="275.87796"
   height="112.87187"
   id="svg3494"
   version="1.1"
   inkscape:version="0.48.5 r10040"
   sodipodi:docname="follow-logo.svg">
  <defs
     id="defs3496" />
  <sodipodi:namedview
     id="base"
     pagecolor="#ffffff"
     bordercolor="#666666"
     borderopacity="1.0"
     inkscape:pageopacity="0.0"
     inkscape:pageshadow="2"
     inkscape:zoom="0.35"
     inkscape:cx="137.93897"
     inkscape:cy="56.435937"
     inkscape:document-units="px"
     inkscape:current-layer="layer1"
     showgrid="false"
     inkscape:window-width="1304"
     inkscape:window-height="746"
     inkscape:window-x="-8"
     inkscape:window-y="-8"
     inkscape:window-maximized="1"
     fit-margin-top="0"
     fit-margin-left="0"
     fit-margin-right="0"
     fit-margin-bottom="0" />
  <metadata
     id="metadata3499">
    <rdf:RDF>
      <cc:Work
         rdf:about="">
        <dc:format>image/svg+xml</dc:format>
        <dc:type
           rdf:resource="http://purl.org/dc/dcmitype/StillImage" />
        <dc:title />
      </cc:Work>
    </rdf:RDF>
  </metadata>
  <g
     inkscape:label="Layer 1"
     inkscape:groupmode="layer"
     id="layer1"
     transform="translate(-237.06103,-475.92625)">
    <g
       id="g3805">
      <g
         transform="matrix(1.25,0,0,-1.25,255.97958,528.67062)"
         id="g3155">
        <path
           inkscape:connector-curvature="0"
           id="path3157"
           style="fill:#ffffff;fill-opacity:1;fill-rule:nonzero;stroke:none"
           d="m 0,0 c 0.738,0.385 1.347,0.897 1.828,1.538 0.481,0.643 0.843,1.372 1.081,2.19 0.241,0.818 0.362,1.673 0.362,2.573 0,1.025 -0.097,1.995 -0.291,2.91 -0.189,0.912 -0.51,1.722 -0.959,2.427 -0.449,0.706 -1.042,1.266 -1.78,1.682 -0.737,0.417 -1.668,0.627 -2.789,0.627 -0.962,0 -1.787,-0.192 -2.476,-0.577 -0.69,-0.385 -1.267,-0.905 -1.732,-1.564 -0.465,-0.658 -0.801,-1.41 -1.009,-2.259 -0.21,-0.85 -0.314,-1.739 -0.314,-2.67 0,-0.897 0.088,-1.788 0.266,-2.669 0.176,-0.882 0.481,-1.676 0.912,-2.38 0.433,-0.705 1.003,-1.283 1.709,-1.731 0.704,-0.45 1.586,-0.673 2.644,-0.673 0.962,0 1.81,0.191 2.548,0.576 M 9.354,-8.271 C 9.082,-9.553 8.496,-10.749 7.6,-11.854 6.7,-12.96 5.403,-13.898 3.704,-14.669 c -1.7,-0.766 -3.975,-1.152 -6.828,-1.152 -1.221,0 -2.463,0.151 -3.729,0.457 -1.265,0.302 -2.419,0.777 -3.462,1.42 -1.041,0.64 -1.909,1.463 -2.597,2.475 -0.69,1.009 -1.082,2.22 -1.178,3.629 l 6.779,0 c 0.321,-1.281 0.948,-2.169 1.877,-2.67 0.93,-0.494 2.005,-0.744 3.223,-0.744 1.923,0 3.325,0.577 4.207,1.733 0.883,1.153 1.306,2.614 1.275,4.376 l 0,3.27 -0.097,0 C 2.436,-3.189 1.388,-4.16 0.026,-4.785 -1.338,-5.41 -2.773,-5.722 -4.28,-5.722 c -1.859,0 -3.462,0.326 -4.809,0.986 -1.347,0.656 -2.451,1.553 -3.318,2.693 -0.864,1.137 -1.498,2.467 -1.9,3.99 -0.401,1.523 -0.601,3.134 -0.601,4.834 0,1.603 0.233,3.15 0.699,4.641 0.463,1.49 1.146,2.805 2.043,3.942 0.896,1.138 2.012,2.046 3.342,2.718 1.331,0.674 2.862,1.01 4.593,1.01 1.634,0 3.069,-0.305 4.303,-0.914 1.236,-0.609 2.269,-1.634 3.102,-3.078 l 0.097,0 0,3.32 6.493,0 0,-23.276 c 0,-0.997 -0.137,-2.132 -0.41,-3.415" />
      </g>
      <g
         transform="matrix(1.25,0,0,-1.25,291.23588,522.26924)"
         id="g3159">
        <path
           inkscape:connector-curvature="0"
           id="path3161"
           style="fill:#ffffff;fill-opacity:1;fill-rule:nonzero;stroke:none"
           d="m 0,0 c -0.432,-0.144 -0.896,-0.265 -1.395,-0.359 -0.497,-0.098 -1.017,-0.177 -1.562,-0.242 -0.546,-0.064 -1.09,-0.142 -1.635,-0.24 -0.514,-0.097 -1.017,-0.225 -1.514,-0.384 -0.498,-0.161 -0.93,-0.378 -1.3,-0.65 -0.367,-0.271 -0.664,-0.618 -0.889,-1.034 -0.225,-0.418 -0.336,-0.945 -0.336,-1.586 0,-0.61 0.111,-1.124 0.336,-1.539 0.225,-0.418 0.528,-0.745 0.914,-0.986 0.385,-0.241 0.832,-0.41 1.346,-0.505 0.513,-0.097 1.042,-0.145 1.588,-0.145 1.346,0 2.386,0.224 3.126,0.674 0.736,0.449 1.28,0.984 1.633,1.611 0.353,0.625 0.569,1.257 0.651,1.9 0.079,0.639 0.12,1.153 0.12,1.538 l 0,2.55 C 0.795,0.346 0.433,0.145 0,0 m -13.49,9.644 c 0.707,1.056 1.604,1.908 2.693,2.547 1.092,0.642 2.318,1.099 3.68,1.371 1.363,0.272 2.732,0.409 4.111,0.409 1.251,0 2.518,-0.089 3.801,-0.264 1.281,-0.177 2.451,-0.522 3.51,-1.034 1.059,-0.513 1.924,-1.227 2.597,-2.14 0.673,-0.914 1.01,-2.125 1.01,-3.632 l 0,-12.935 c 0,-1.123 0.063,-2.196 0.192,-3.222 0.127,-1.027 0.353,-1.797 0.673,-2.309 l -6.925,0 c -0.129,0.384 -0.232,0.777 -0.313,1.178 -0.08,0.402 -0.137,0.808 -0.168,1.227 -1.09,-1.123 -2.372,-1.908 -3.848,-2.358 -1.475,-0.448 -2.981,-0.673 -4.519,-0.673 -1.188,0 -2.293,0.145 -3.318,0.433 -1.028,0.289 -1.924,0.738 -2.695,1.349 -0.768,0.606 -1.37,1.376 -1.803,2.307 -0.432,0.928 -0.648,2.035 -0.648,3.319 0,1.409 0.247,2.572 0.745,3.485 0.495,0.913 1.138,1.644 1.923,2.188 0.786,0.546 1.683,0.953 2.694,1.226 1.011,0.273 2.028,0.489 3.054,0.65 1.024,0.16 2.035,0.289 3.03,0.385 0.993,0.097 1.873,0.241 2.644,0.432 0.769,0.192 1.379,0.474 1.827,0.843 0.448,0.366 0.657,0.905 0.626,1.61 0,0.737 -0.12,1.323 -0.361,1.755 -0.241,0.434 -0.561,0.77 -0.961,1.012 -0.404,0.241 -0.866,0.399 -1.397,0.478 -0.529,0.081 -1.097,0.121 -1.707,0.121 -1.344,0 -2.403,-0.288 -3.173,-0.866 C -7.285,7.961 -7.734,6.998 -7.861,5.651 l -6.829,0 c 0.094,1.603 0.495,2.934 1.2,3.993" />
      </g>
      <g
         transform="matrix(1.25,0,0,-1.25,313.11698,529.00025)"
         id="g3163">
        <path
           inkscape:connector-curvature="0"
           id="path3165"
           style="fill:#ffffff;fill-opacity:1;fill-rule:nonzero;stroke:none"
           d="m 0,0 c 0.306,-0.529 0.698,-0.964 1.179,-1.298 0.481,-0.337 1.033,-0.587 1.659,-0.747 0.626,-0.161 1.273,-0.24 1.947,-0.24 0.482,0 0.986,0.056 1.516,0.168 0.528,0.113 1.011,0.288 1.442,0.528 0.434,0.241 0.793,0.564 1.082,0.962 0.289,0.401 0.434,0.906 0.434,1.517 0,1.025 -0.682,1.793 -2.045,2.308 C 5.852,3.711 3.953,4.224 1.516,4.737 0.521,4.961 -0.448,5.225 -1.395,5.529 -2.34,5.833 -3.182,6.235 -3.919,6.731 c -0.738,0.497 -1.33,1.124 -1.779,1.878 -0.45,0.751 -0.674,1.674 -0.674,2.765 0,1.601 0.313,2.916 0.938,3.942 0.625,1.026 1.451,1.836 2.478,2.429 1.025,0.594 2.179,1.01 3.462,1.25 1.281,0.241 2.598,0.36 3.943,0.36 1.347,0 2.653,-0.126 3.92,-0.383 1.264,-0.257 2.397,-0.69 3.389,-1.298 0.993,-0.611 1.821,-1.42 2.477,-2.429 0.656,-1.012 1.05,-2.285 1.178,-3.824 l -6.49,0 c -0.098,1.314 -0.595,2.204 -1.493,2.67 -0.897,0.465 -1.955,0.696 -3.173,0.696 -0.385,0 -0.803,-0.023 -1.25,-0.072 C 2.559,14.666 2.148,14.563 1.779,14.402 1.411,14.241 1.099,14.01 0.843,13.704 0.586,13.4 0.458,12.99 0.458,12.479 0.458,11.87 0.681,11.374 1.131,10.988 1.579,10.604 2.164,10.291 2.887,10.05 3.606,9.811 4.434,9.593 5.362,9.402 6.292,9.209 7.239,8.999 8.2,8.776 9.193,8.552 10.163,8.279 11.108,7.958 c 0.947,-0.321 1.788,-0.745 2.526,-1.274 0.738,-0.529 1.33,-1.188 1.779,-1.972 0.447,-0.785 0.675,-1.755 0.675,-2.91 0,-1.634 -0.329,-3.004 -0.987,-4.111 -0.657,-1.107 -1.513,-1.997 -2.573,-2.67 -1.058,-0.672 -2.268,-1.147 -3.63,-1.417 -1.365,-0.272 -2.749,-0.411 -4.16,-0.411 -1.443,0 -2.853,0.146 -4.232,0.434 -1.379,0.289 -2.605,0.769 -3.679,1.443 -1.074,0.673 -1.955,1.562 -2.645,2.669 -0.691,1.106 -1.067,2.492 -1.13,4.16 l 6.49,0 C -0.458,1.161 -0.304,0.529 0,0" />
      </g>
      <g
         transform="matrix(1.25,0,0,-1.25,363.70178,524.85475)"
         id="g3167">
        <path
           inkscape:connector-curvature="0"
           id="path3169"
           style="fill:#ffffff;fill-opacity:1;fill-rule:nonzero;stroke:none"
           d="m 0,0 c 0.192,-0.944 0.52,-1.794 0.985,-2.548 0.465,-0.753 1.083,-1.354 1.852,-1.804 0.77,-0.448 1.732,-0.673 2.887,-0.673 1.153,0 2.121,0.225 2.908,0.673 0.786,0.45 1.411,1.051 1.876,1.804 0.466,0.754 0.793,1.604 0.985,2.548 0.194,0.947 0.288,1.917 0.288,2.912 0,0.991 -0.094,1.97 -0.288,2.932 -0.192,0.962 -0.519,1.811 -0.985,2.55 C 10.043,9.13 9.418,9.731 8.632,10.196 7.845,10.66 6.877,10.895 5.724,10.895 4.569,10.895 3.607,10.66 2.837,10.196 2.068,9.731 1.45,9.13 0.985,8.394 0.52,7.655 0.192,6.806 0,5.844 -0.192,4.882 -0.288,3.903 -0.288,2.912 -0.288,1.917 -0.192,0.947 0,0 m -6.203,8.32 c 0.608,1.619 1.473,2.998 2.597,4.138 1.121,1.137 2.467,2.018 4.039,2.645 1.571,0.623 3.334,0.936 5.291,0.936 1.954,0 3.726,-0.313 5.313,-0.936 1.587,-0.627 2.942,-1.508 4.063,-2.645 1.123,-1.14 1.987,-2.519 2.597,-4.138 0.609,-1.618 0.913,-3.421 0.913,-5.408 0,-1.989 -0.304,-3.784 -0.913,-5.387 -0.61,-1.604 -1.474,-2.975 -2.597,-4.113 -1.121,-1.138 -2.476,-2.013 -4.063,-2.62 -1.587,-0.607 -3.359,-0.915 -5.313,-0.915 -1.957,0 -3.72,0.308 -5.291,0.915 -1.572,0.607 -2.918,1.482 -4.039,2.62 -1.124,1.138 -1.989,2.509 -2.597,4.113 -0.609,1.603 -0.914,3.398 -0.914,5.387 0,1.987 0.305,3.79 0.914,5.408" />
      </g>
      <g
         transform="matrix(1.25,0,0,-1.25,397.87648,529.00025)"
         id="g3171">
        <path
           inkscape:connector-curvature="0"
           id="path3173"
           style="fill:#ffffff;fill-opacity:1;fill-rule:nonzero;stroke:none"
           d="m 0,0 c 0.304,-0.529 0.696,-0.964 1.178,-1.298 0.482,-0.337 1.033,-0.587 1.66,-0.747 0.624,-0.161 1.274,-0.24 1.947,-0.24 0.481,0 0.985,0.056 1.513,0.168 0.531,0.113 1.011,0.288 1.443,0.528 0.434,0.241 0.794,0.564 1.083,0.962 0.289,0.401 0.434,0.906 0.434,1.517 0,1.025 -0.684,1.793 -2.044,2.308 -1.363,0.513 -3.263,1.026 -5.7,1.539 -0.994,0.224 -1.962,0.488 -2.909,0.792 -0.947,0.304 -1.788,0.706 -2.526,1.202 -0.736,0.497 -1.329,1.124 -1.778,1.878 -0.45,0.751 -0.674,1.674 -0.674,2.765 0,1.601 0.313,2.916 0.937,3.942 0.626,1.026 1.45,1.836 2.479,2.429 1.025,0.594 2.179,1.01 3.461,1.25 1.283,0.241 2.597,0.36 3.944,0.36 1.347,0 2.653,-0.126 3.919,-0.383 1.267,-0.257 2.396,-0.69 3.391,-1.298 0.993,-0.611 1.819,-1.42 2.476,-2.429 0.657,-1.012 1.05,-2.285 1.179,-3.824 l -6.493,0 C 8.824,12.735 8.327,13.625 7.431,14.091 6.532,14.556 5.474,14.787 4.255,14.787 3.87,14.787 3.454,14.764 3.006,14.715 2.556,14.666 2.147,14.563 1.778,14.402 1.409,14.241 1.098,14.01 0.842,13.704 0.585,13.4 0.457,12.99 0.457,12.479 0.457,11.87 0.681,11.374 1.128,10.988 1.577,10.604 2.163,10.291 2.885,10.05 3.605,9.811 4.432,9.593 5.36,9.402 6.292,9.209 7.238,8.999 8.198,8.776 9.192,8.552 10.163,8.279 11.107,7.958 c 0.947,-0.321 1.789,-0.745 2.526,-1.274 0.737,-0.529 1.33,-1.188 1.78,-1.972 0.448,-0.785 0.673,-1.755 0.673,-2.91 0,-1.634 -0.328,-3.004 -0.985,-4.111 -0.66,-1.107 -1.515,-1.997 -2.575,-2.67 -1.058,-0.672 -2.267,-1.147 -3.629,-1.417 -1.364,-0.272 -2.751,-0.411 -4.161,-0.411 -1.443,0 -2.853,0.146 -4.232,0.434 -1.379,0.289 -2.604,0.769 -3.679,1.443 -1.074,0.673 -1.955,1.562 -2.644,2.669 -0.69,1.106 -1.068,2.492 -1.13,4.16 l 6.49,0 C -0.459,1.161 -0.305,0.529 0,0" />
      </g>
      <g
         transform="matrix(1.25,0,0,-1.25,354.04598,504.90962)"
         id="g3175">
        <path
           inkscape:connector-curvature="0"
           id="path3177"
           style="fill:#ffffff;fill-opacity:1;fill-rule:nonzero;stroke:none"
           d="m 0,0 0,-6.411 -5,-0.026 0,-11.098 c 0,-1.156 0.193,-1.926 0.575,-2.311 0.386,-0.383 1.154,-0.576 2.309,-0.576 0.385,0 0.753,0.016 1.107,0.048 0.352,0.031 0.69,0.081 1.009,0.145 l 0,-5.288 c -0.576,-0.099 -1.219,-0.164 -1.925,-0.195 -0.704,-0.032 -1.393,-0.049 -2.065,-0.049 -1.059,0 -2.062,0.073 -3.007,0.215 -0.944,0.147 -1.779,0.427 -2.501,0.844 -0.72,0.417 -1.29,1.01 -1.707,1.779 -0.417,0.769 -0.625,1.781 -0.625,3.029 l -0.009,13.457 -3.33,0.002 -1.878,6.451 5.217,0 0,6.783 6.83,0 L -5,0 0,0 z" />
      </g>
      <g
         transform="matrix(1.25,0,0,-1.25,256.38728,573.55587)"
         id="g3179">
        <path
           inkscape:connector-curvature="0"
           id="path3181"
           style="fill:#ffffff;fill-opacity:1;fill-rule:nonzero;stroke:none"
           d="m 0,0 c -0.432,-0.144 -0.896,-0.266 -1.394,-0.361 -0.498,-0.098 -1.019,-0.176 -1.564,-0.241 -0.544,-0.063 -1.089,-0.144 -1.634,-0.241 -0.512,-0.094 -1.018,-0.223 -1.516,-0.384 -0.496,-0.161 -0.929,-0.376 -1.297,-0.65 -0.37,-0.272 -0.667,-0.616 -0.891,-1.031 -0.222,-0.42 -0.336,-0.946 -0.336,-1.589 0,-0.611 0.114,-1.124 0.336,-1.539 0.224,-0.418 0.529,-0.746 0.915,-0.986 0.384,-0.24 0.833,-0.409 1.346,-0.506 0.512,-0.094 1.041,-0.144 1.587,-0.144 1.346,0 2.389,0.226 3.125,0.674 0.738,0.449 1.284,0.986 1.635,1.612 0.353,0.624 0.57,1.257 0.65,1.9 0.08,0.64 0.12,1.153 0.12,1.539 l 0,2.548 C 0.793,0.345 0.434,0.145 0,0 m -13.489,9.644 c 0.704,1.057 1.603,1.906 2.692,2.545 1.092,0.642 2.317,1.1 3.679,1.372 1.364,0.272 2.735,0.409 4.113,0.409 1.249,0 2.517,-0.089 3.798,-0.264 C 2.076,13.527 3.247,13.184 4.305,12.672 5.363,12.159 6.228,11.445 6.901,10.531 7.575,9.619 7.912,8.406 7.912,6.9 l 0,-12.936 c 0,-1.123 0.063,-2.195 0.192,-3.223 0.127,-1.024 0.352,-1.795 0.673,-2.307 l -6.924,0 c -0.13,0.386 -0.235,0.777 -0.314,1.176 -0.081,0.403 -0.138,0.811 -0.169,1.229 -1.092,-1.122 -2.372,-1.907 -3.847,-2.359 -1.474,-0.448 -2.981,-0.673 -4.52,-0.673 -1.187,0 -2.292,0.146 -3.318,0.436 -1.026,0.288 -1.922,0.736 -2.693,1.347 -0.769,0.606 -1.372,1.377 -1.803,2.306 -0.432,0.932 -0.65,2.036 -0.65,3.319 0,1.41 0.249,2.572 0.744,3.484 0.497,0.915 1.14,1.646 1.925,2.19 0.786,0.545 1.684,0.955 2.693,1.226 1.01,0.275 2.027,0.489 3.053,0.649 1.026,0.162 2.036,0.291 3.031,0.385 0.993,0.099 1.875,0.242 2.645,0.434 0.767,0.191 1.379,0.472 1.828,0.841 0.448,0.369 0.656,0.905 0.624,1.612 0,0.737 -0.12,1.32 -0.36,1.755 C 0.479,8.226 0.161,8.559 -0.24,8.801 -0.643,9.042 -1.106,9.2 -1.635,9.282 -2.164,9.361 -2.732,9.4 -3.342,9.4 -4.688,9.4 -5.746,9.113 -6.517,8.537 -7.285,7.959 -7.735,6.997 -7.862,5.65 l -6.829,0 c 0.094,1.604 0.497,2.933 1.202,3.994" />
      </g>
      <g
         transform="matrix(1.25,0,0,-1.25,293.44788,568.71587)"
         id="g3183">
        <path
           inkscape:connector-curvature="0"
           id="path3185"
           style="fill:#ffffff;fill-opacity:1;fill-rule:nonzero;stroke:none"
           d="M 0,0 C -0.225,0.962 -0.577,1.81 -1.058,2.549 -1.539,3.283 -2.142,3.87 -2.862,4.302 -3.582,4.736 -4.458,4.953 -5.484,4.953 -6.477,4.953 -7.342,4.736 -8.078,4.302 -8.817,3.87 -9.426,3.283 -9.906,2.549 -10.388,1.81 -10.742,0.962 -10.966,0 c -0.223,-0.965 -0.335,-1.972 -0.335,-3.03 0,-1.027 0.112,-2.021 0.335,-2.983 0.224,-0.963 0.578,-1.811 1.06,-2.55 0.48,-0.736 1.089,-1.321 1.828,-1.754 0.736,-0.433 1.601,-0.649 2.594,-0.649 1.026,0 1.902,0.216 2.622,0.649 0.72,0.433 1.323,1.018 1.804,1.754 0.481,0.739 0.833,1.587 1.058,2.55 0.224,0.962 0.338,1.956 0.338,2.983 C 0.338,-1.972 0.224,-0.965 0,0 m -11.061,18.899 0,-12.503 0.095,0 c 0.834,1.282 1.965,2.219 3.392,2.812 1.425,0.591 2.909,0.89 4.449,0.89 1.249,0 2.483,-0.258 3.7,-0.77 C 1.794,8.815 2.894,8.03 3.872,6.974 4.847,5.915 5.642,4.559 6.251,2.91 6.859,1.256 7.165,-0.708 7.165,-2.983 c 0,-2.277 -0.306,-4.24 -0.914,-5.888 -0.609,-1.655 -1.404,-3.009 -2.379,-4.067 -0.978,-1.056 -2.078,-1.842 -3.297,-2.356 -1.217,-0.513 -2.451,-0.771 -3.7,-0.771 -1.827,0 -3.463,0.291 -4.906,0.868 -1.443,0.576 -2.532,1.552 -3.27,2.934 l -0.097,0 0,-3.175 -6.492,0 0,34.337 6.829,0 z" />
      </g>
      <g
         transform="matrix(1.25,0,0,-1.25,324.79548,564.20775)"
         id="g3187">
        <path
           inkscape:connector-curvature="0"
           id="path3189"
           style="fill:#ffffff;fill-opacity:1;fill-rule:nonzero;stroke:none"
           d="m 0,0 c -0.817,0.896 -2.06,1.347 -3.727,1.347 -1.089,0 -1.997,-0.186 -2.716,-0.553 -0.722,-0.37 -1.3,-0.828 -1.733,-1.372 C -8.608,-1.124 -8.912,-1.7 -9.089,-2.31 -9.266,-2.917 -9.369,-3.463 -9.4,-3.942 l 11.106,0 C 1.388,-2.213 0.818,-0.896 0,0 m -7.719,-13.08 c 1.027,-0.995 2.501,-1.492 4.424,-1.492 1.38,0 2.566,0.343 3.561,1.034 0.992,0.69 1.602,1.418 1.827,2.187 l 6.011,0 c -0.963,-2.981 -2.436,-5.114 -4.425,-6.393 -1.988,-1.284 -4.393,-1.928 -7.213,-1.928 -1.955,0 -3.72,0.314 -5.289,0.94 -1.572,0.626 -2.902,1.515 -3.993,2.667 -1.089,1.156 -1.931,2.534 -2.524,4.137 -0.594,1.604 -0.89,3.367 -0.89,5.291 0,1.86 0.305,3.59 0.915,5.195 0.608,1.602 1.472,2.99 2.596,4.159 1.121,1.17 2.46,2.092 4.015,2.764 1.556,0.675 3.277,1.01 5.17,1.01 2.116,0 3.959,-0.409 5.53,-1.225 C 3.568,4.447 4.857,3.35 5.868,1.97 6.879,0.592 7.605,-0.98 8.055,-2.743 8.505,-4.506 8.666,-6.35 8.536,-8.271 l -17.936,0 c 0.095,-2.213 0.655,-3.815 1.681,-4.809" />
      </g>
      <g
         transform="matrix(1.25,0,0,-1.25,346.82548,556.93362)"
         id="g3191">
        <path
           inkscape:connector-curvature="0"
           id="path3193"
           style="fill:#ffffff;fill-opacity:1;fill-rule:nonzero;stroke:none"
           d="m 0,0 0,-4.616 0.097,0 c 0.32,0.766 0.754,1.481 1.299,2.137 0.543,0.658 1.17,1.219 1.876,1.687 C 3.977,-0.33 4.729,0.03 5.531,0.286 6.334,0.544 7.12,0.743 7.983,0.672 8.391,0.639 8.391,0.639 8.801,0.541 l 1.77,-6.215 c -0.869,0 -1.666,0.016 -2.194,0.028 -0.455,0.014 -0.89,-0.029 -1.306,-0.029 -1.252,0 -2.309,-0.209 -3.175,-0.626 C 3.03,-6.716 2.333,-7.287 1.804,-8.007 1.274,-8.73 0.897,-9.571 0.674,-10.534 0.449,-11.496 0.337,-12.538 0.337,-13.659 l 0,-11.205 -6.828,0 L -6.491,0 0,0 z" />
      </g>
      <g
         transform="matrix(1.25,0,0,-1.25,393.17328,576.14137)"
         id="g3195">
        <path
           inkscape:connector-curvature="0"
           id="path3197"
           style="fill:#ffffff;fill-opacity:1;fill-rule:nonzero;stroke:none"
           d="m 0,0 c 0.192,-0.945 0.52,-1.795 0.985,-2.549 0.465,-0.752 1.082,-1.354 1.852,-1.804 0.77,-0.448 1.731,-0.672 2.885,-0.672 1.155,0 2.123,0.224 2.91,0.672 0.785,0.45 1.411,1.052 1.874,1.804 0.467,0.754 0.794,1.604 0.987,2.549 0.194,0.944 0.289,1.914 0.289,2.91 0,0.991 -0.095,1.972 -0.289,2.933 -0.193,0.961 -0.52,1.81 -0.987,2.551 -0.463,0.735 -1.089,1.335 -1.874,1.801 -0.787,0.463 -1.755,0.699 -2.91,0.699 -1.154,0 -2.115,-0.236 -2.885,-0.699 C 2.067,9.729 1.45,9.129 0.985,8.394 0.52,7.653 0.192,6.804 0,5.843 -0.192,4.882 -0.289,3.901 -0.289,2.91 -0.289,1.914 -0.192,0.944 0,0 m -6.205,8.32 c 0.61,1.618 1.476,2.996 2.599,4.136 1.12,1.138 2.467,2.021 4.04,2.648 1.569,0.622 3.333,0.934 5.288,0.934 1.956,0 3.728,-0.312 5.315,-0.934 1.587,-0.627 2.942,-1.51 4.064,-2.648 1.122,-1.14 1.987,-2.518 2.597,-4.136 0.607,-1.619 0.912,-3.423 0.912,-5.41 0,-1.988 -0.305,-3.784 -0.912,-5.387 -0.61,-1.601 -1.475,-2.972 -2.597,-4.112 C 13.979,-7.725 12.624,-8.6 11.037,-9.21 9.45,-9.816 7.678,-10.125 5.722,-10.125 c -1.955,0 -3.719,0.309 -5.288,0.915 -1.573,0.61 -2.92,1.485 -4.04,2.621 -1.123,1.14 -1.989,2.511 -2.599,4.112 -0.608,1.603 -0.912,3.399 -0.912,5.387 0,1.987 0.304,3.791 0.912,5.41" />
      </g>
      <g
         transform="matrix(1.25,0,0,-1.25,427.34668,580.28812)"
         id="g3199">
        <path
           inkscape:connector-curvature="0"
           id="path3201"
           style="fill:#ffffff;fill-opacity:1;fill-rule:nonzero;stroke:none"
           d="m 0,0 c 0.305,-0.528 0.697,-0.962 1.178,-1.299 0.482,-0.338 1.036,-0.586 1.66,-0.746 0.624,-0.162 1.273,-0.241 1.948,-0.241 0.48,0 0.985,0.057 1.513,0.171 0.531,0.11 1.011,0.287 1.443,0.528 0.434,0.24 0.794,0.561 1.082,0.961 0.29,0.401 0.433,0.903 0.433,1.515 0,1.025 -0.681,1.796 -2.043,2.308 C 5.85,3.71 3.951,4.224 1.516,4.737 0.521,4.96 -0.449,5.225 -1.395,5.53 c -0.946,0.304 -1.787,0.703 -2.524,1.2 -0.738,0.499 -1.33,1.123 -1.779,1.877 -0.45,0.754 -0.675,1.676 -0.675,2.765 0,1.603 0.313,2.917 0.938,3.945 0.626,1.026 1.453,1.833 2.476,2.426 1.028,0.596 2.181,1.011 3.465,1.253 1.281,0.239 2.596,0.359 3.941,0.359 1.348,0 2.654,-0.127 3.92,-0.385 1.268,-0.256 2.397,-0.688 3.391,-1.297 0.994,-0.611 1.818,-1.418 2.477,-2.429 0.657,-1.01 1.049,-2.285 1.179,-3.822 l -6.493,0 C 8.824,12.734 8.328,13.624 7.43,14.09 6.533,14.555 5.473,14.786 4.256,14.786 3.87,14.786 3.455,14.763 3.006,14.716 2.557,14.668 2.147,14.562 1.779,14.402 1.41,14.242 1.098,14.01 0.84,13.703 0.584,13.399 0.457,12.99 0.457,12.48 0.457,11.869 0.681,11.372 1.131,10.987 1.578,10.604 2.164,10.291 2.886,10.05 3.607,9.81 4.432,9.594 5.361,9.401 6.292,9.208 7.238,9 8.199,8.776 9.192,8.55 10.162,8.278 11.108,7.96 12.055,7.637 12.896,7.214 13.633,6.685 14.371,6.156 14.964,5.498 15.414,4.712 15.861,3.927 16.087,2.957 16.087,1.803 16.087,0.167 15.757,-1.203 15.101,-2.31 14.443,-3.414 13.587,-4.306 12.527,-4.978 11.469,-5.651 10.26,-6.124 8.896,-6.396 7.533,-6.669 6.147,-6.808 4.737,-6.808 c -1.443,0 -2.854,0.147 -4.231,0.437 -1.38,0.288 -2.607,0.767 -3.68,1.439 -1.075,0.676 -1.957,1.563 -2.645,2.671 -0.69,1.106 -1.066,2.491 -1.129,4.16 l 6.491,0 C -0.457,1.162 -0.305,0.53 0,0" />
      </g>
      <g
         transform="matrix(1.25,0,0,-1.25,382.95458,556.11449)"
         id="g3203">
        <path
           inkscape:connector-curvature="0"
           id="path3205"
           style="fill:#ffffff;fill-opacity:1;fill-rule:nonzero;stroke:none"
           d="m 0,0 0,-6.411 -5,-0.025 0,-11.098 c 0,-1.155 0.191,-1.926 0.575,-2.31 0.385,-0.385 1.154,-0.578 2.31,-0.578 0.383,0 0.751,0.016 1.105,0.049 0.354,0.032 0.69,0.078 1.01,0.144 l 0,-5.29 c -0.577,-0.097 -1.219,-0.16 -1.924,-0.193 -0.705,-0.032 -1.394,-0.049 -2.068,-0.049 -1.058,0 -2.059,0.072 -3.005,0.216 -0.945,0.148 -1.779,0.427 -2.501,0.845 -0.722,0.415 -1.29,1.009 -1.707,1.777 -0.418,0.771 -0.626,1.779 -0.626,3.03 l -0.008,13.457 -3.332,0.002 -1.877,6.451 5.217,0 0,6.782 6.831,0 L -5,0 0,0 z" />
      </g>
      <g
         transform="matrix(1.25,0,0,-1.25,506.57898,533.48875)"
         id="g3207">
        <path
           inkscape:connector-curvature="0"
           id="path3209"
           style="fill:#ffffff;fill-opacity:1;fill-rule:nonzero;stroke:none"
           d="m 0,0 c 0,-3.202 -2.054,-6.099 -5.254,-6.099 l -14.499,0 -8.235,-8.124 -8.237,8.124 -14.496,0 c -3.201,0 -6.514,2.897 -6.514,6.099 l 0,35 c 0,3.203 3.313,5.961 6.514,5.961 l 45.467,0 C -2.054,40.961 0,38.203 0,35 L 0,0 z m -5.254,46.05 -45.467,0 c -6.007,0 -11.602,-5.042 -11.602,-11.05 l 0,-35.003 c 0,-6.007 5.595,-11.184 11.602,-11.184 l 11.673,0 11.062,-10.109 11.059,10.109 11.673,0 C 0.753,-11.187 5.088,-6.01 5.088,0 l 0,35 c 0,6.008 -4.335,11.05 -10.342,11.05" />
      </g>
      <g
         transform="matrix(1.25,0,0,-1.25,482.04038,567.47924)"
         id="g3211">
        <path
           inkscape:connector-curvature="0"
           id="path3213"
           style="fill:#ffffff;fill-opacity:1;fill-rule:nonzero;stroke:none"
           d="m 0,0 c 0,-1.068 -0.712,-1.779 -1.886,-1.779 l -12.056,0 C -15.118,-1.779 -16,-1.068 -16,0 l 0,1.287 c 0,1.068 0.882,1.934 2.058,1.934 l 12.056,0 C -0.712,3.221 0,2.355 0,1.287 L 0,0 z" />
      </g>
      <g
         transform="matrix(1.25,0,0,-1.25,474.11188,507.74174)"
         id="g3215">
        <path
           inkscape:connector-curvature="0"
           id="path3217"
           style="fill:#ffffff;fill-opacity:1;fill-rule:nonzero;stroke:none"
           d="m 0,0 c -3.988,1.438 -5.613,2.459 -5.613,3.944 0,1.297 0.974,2.643 3.99,2.643 3.339,0 5.519,-1.066 6.679,-1.621 l 1.392,5.241 c -1.626,0.741 -3.712,1.439 -6.772,1.53 l 0,4.081 -4.547,0 0,-4.405 c -4.965,-0.93 -7.84,-4.13 -7.84,-8.258 0,-4.5 3.388,-6.818 8.35,-8.489 3.478,-1.158 4.963,-2.274 4.963,-4.035 0,-1.81 -1.807,-2.876 -4.499,-2.876 -3.015,0 -5.752,0.974 -7.701,2.041 l -1.391,-5.427 c 1.762,-0.975 4.777,-1.855 7.886,-1.995 l 0,-4.408 4.591,0 0,4.777 c 5.334,0.883 8.211,4.408 8.211,8.536 C 7.699,-4.499 5.521,-1.947 0,0" />
      </g>
    </g>
  </g>
</svg>
