<?xml version="1.0" encoding="UTF-8" standalone="no"?>
<!-- Created with Inkscape (http://www.inkscape.org/) -->

<svg
   xmlns:dc="http://purl.org/dc/elements/1.1/"
   xmlns:cc="http://creativecommons.org/ns#"
   xmlns:rdf="http://www.w3.org/1999/02/22-rdf-syntax-ns#"
   xmlns:svg="http://www.w3.org/2000/svg"
   xmlns="http://www.w3.org/2000/svg"
   xmlns:sodipodi="http://sodipodi.sourceforge.net/DTD/sodipodi-0.dtd"
   xmlns:inkscape="http://www.inkscape.org/namespaces/inkscape"
   width="487.91574"
   height="91.82003"
   id="svg3363"
   version="1.1"
   inkscape:version="0.48.5 r10040"
   sodipodi:docname="header-logo.svg">
  <defs
     id="defs3365">
    <clipPath
       clipPathUnits="userSpaceOnUse"
       id="clipPath3295">
      <path
         inkscape:connector-curvature="0"
         d="M 0,806 1286,806 1286,0 0,0 0,806 z"
         id="path3297" />
    </clipPath>
  </defs>
  <sodipodi:namedview
     id="base"
     pagecolor="#ffffff"
     bordercolor="#666666"
     borderopacity="1.0"
     inkscape:pageopacity="0.0"
     inkscape:pageshadow="2"
     inkscape:zoom="0.35"
     inkscape:cx="243.95787"
     inkscape:cy="45.910019"
     inkscape:document-units="px"
     inkscape:current-layer="layer1"
     showgrid="false"
     inkscape:window-width="845"
     inkscape:window-height="517"
     inkscape:window-x="50"
     inkscape:window-y="50"
     inkscape:window-maximized="0"
     fit-margin-top="0"
     fit-margin-left="0"
     fit-margin-right="0"
     fit-margin-bottom="0" />
  <metadata
     id="metadata3368">
    <rdf:RDF>
      <cc:Work
         rdf:about="">
        <dc:format>image/svg+xml</dc:format>
        <dc:type
           rdf:resource="http://purl.org/dc/dcmitype/StillImage" />
        <dc:title />
      </cc:Work>
    </rdf:RDF>
  </metadata>
  <g
     inkscape:label="Layer 1"
     inkscape:groupmode="layer"
     id="layer1"
     transform="translate(-131.04212,-486.45217)">
    <g
       id="g3291"
       transform="matrix(1.25,0,0,-1.25,-876.94075,1044.5218)">
      <g
         id="g3293"
         clip-path="url(#clipPath3295)">
        <g
           id="g3299"
           transform="translate(820.9873,412.6035)">
          <path
             d="M 0,0 C 0.723,0.376 1.318,0.879 1.79,1.507 2.261,2.136 2.613,2.85 2.85,3.651 3.085,4.452 3.202,5.29 3.202,6.17 c 0,1.005 -0.095,1.955 -0.282,2.849 -0.188,0.896 -0.503,1.688 -0.941,2.379 -0.441,0.691 -1.022,1.241 -1.745,1.648 -0.721,0.408 -1.631,0.614 -2.73,0.614 -0.943,0 -1.751,-0.189 -2.426,-0.566 -0.676,-0.376 -1.241,-0.886 -1.695,-1.531 -0.455,-0.645 -0.786,-1.382 -0.99,-2.214 -0.205,-0.833 -0.306,-1.703 -0.306,-2.614 0,-0.879 0.087,-1.751 0.26,-2.614 0.172,-0.864 0.47,-1.641 0.893,-2.329 0.424,-0.693 0.983,-1.258 1.673,-1.697 0.691,-0.44 1.555,-0.659 2.591,-0.659 0.941,0 1.773,0.187 2.496,0.564 m 9.16,-8.101 c -0.267,-1.256 -0.84,-2.426 -1.718,-3.509 -0.88,-1.082 -2.151,-2.001 -3.817,-2.755 -1.664,-0.753 -3.892,-1.13 -6.686,-1.13 -1.194,0 -2.41,0.149 -3.65,0.447 -1.242,0.298 -2.372,0.762 -3.392,1.39 -1.021,0.628 -1.869,1.435 -2.544,2.426 -0.675,0.988 -1.059,2.173 -1.154,3.555 l 6.641,0 c 0.314,-1.257 0.926,-2.127 1.838,-2.615 0.91,-0.485 1.962,-0.729 3.155,-0.729 1.884,0 3.258,0.563 4.121,1.697 0.863,1.129 1.279,2.559 1.248,4.286 l 0,3.202 -0.095,0 c -0.722,-1.289 -1.75,-2.239 -3.083,-2.851 -1.336,-0.611 -2.741,-0.916 -4.215,-0.916 -1.822,0 -3.392,0.32 -4.711,0.965 -1.319,0.64 -2.403,1.521 -3.249,2.637 -0.849,1.113 -1.469,2.417 -1.862,3.909 -0.393,1.49 -0.588,3.068 -0.588,4.733 0,1.569 0.227,3.084 0.683,4.546 0.454,1.46 1.122,2.747 2.002,3.861 0.878,1.114 1.97,2.002 3.272,2.661 1.303,0.659 2.804,0.989 4.499,0.989 1.601,0 3.006,-0.298 4.215,-0.895 1.209,-0.596 2.222,-1.6 3.037,-3.014 l 0.095,0 0,3.25 6.359,0 0,-22.795 c 0,-0.974 -0.134,-2.087 -0.401,-3.345"
             style="fill:#ffffff;fill-opacity:1;fill-rule:nonzero;stroke:none"
             id="path3301"
             inkscape:connector-curvature="0" />
        </g>
        <g
           id="g3303"
           transform="translate(848.6104,417.6187)">
          <path
             d="m 0,0 c -0.424,-0.141 -0.879,-0.257 -1.366,-0.352 -0.487,-0.094 -0.997,-0.174 -1.531,-0.236 -0.535,-0.063 -1.067,-0.141 -1.6,-0.236 -0.504,-0.093 -0.998,-0.219 -1.485,-0.376 -0.487,-0.156 -0.912,-0.369 -1.271,-0.636 -0.36,-0.267 -0.652,-0.605 -0.871,-1.012 -0.221,-0.409 -0.33,-0.927 -0.33,-1.555 0,-0.597 0.109,-1.1 0.33,-1.507 0.219,-0.409 0.518,-0.731 0.894,-0.965 0.377,-0.235 0.816,-0.401 1.318,-0.497 0.502,-0.092 1.021,-0.139 1.556,-0.139 1.318,0 2.337,0.219 3.06,0.659 0.722,0.439 1.256,0.966 1.602,1.579 0.344,0.611 0.557,1.231 0.636,1.858 0.079,0.628 0.118,1.131 0.118,1.509 l 0,2.495 C 0.777,0.338 0.424,0.143 0,0 m -13.212,9.445 c 0.691,1.035 1.57,1.867 2.638,2.495 1.067,0.628 2.267,1.076 3.602,1.343 1.335,0.267 2.677,0.4 4.028,0.4 1.225,0 2.465,-0.086 3.721,-0.258 C 2.032,13.252 3.179,12.913 4.215,12.412 5.252,11.908 6.1,11.211 6.76,10.315 7.418,9.42 7.747,8.236 7.747,6.759 l 0,-12.669 c 0,-1.1 0.064,-2.15 0.19,-3.156 0.125,-1.006 0.344,-1.759 0.659,-2.261 l -6.784,0 c -0.125,0.378 -0.227,0.762 -0.305,1.154 -0.078,0.393 -0.134,0.791 -0.166,1.202 -1.068,-1.101 -2.322,-1.869 -3.767,-2.308 -1.445,-0.44 -2.92,-0.66 -4.427,-0.66 -1.163,0 -2.245,0.143 -3.251,0.424 -1.003,0.284 -1.882,0.722 -2.636,1.321 -0.755,0.594 -1.343,1.347 -1.767,2.258 -0.424,0.911 -0.636,1.994 -0.636,3.25 0,1.382 0.244,2.521 0.73,3.415 0.485,0.895 1.115,1.609 1.885,2.144 0.768,0.533 1.647,0.932 2.636,1.2 0.991,0.267 1.987,0.479 2.992,0.635 1.005,0.158 1.994,0.284 2.967,0.378 0.973,0.095 1.837,0.236 2.59,0.426 0.755,0.186 1.351,0.461 1.791,0.822 0.439,0.36 0.644,0.887 0.612,1.578 0,0.722 -0.118,1.295 -0.353,1.72 C 0.472,8.055 0.157,8.385 -0.234,8.62 -0.629,8.856 -1.083,9.012 -1.602,9.092 -2.12,9.17 -2.678,9.21 -3.273,9.21 -4.592,9.21 -5.629,8.927 -6.382,8.361 -7.137,7.796 -7.576,6.854 -7.701,5.536 l -6.688,0 c 0.094,1.568 0.487,2.872 1.177,3.909"
             style="fill:#ffffff;fill-opacity:1;fill-rule:nonzero;stroke:none"
             id="path3305"
             inkscape:connector-curvature="0" />
        </g>
        <g
           id="g3307"
           transform="translate(865.7539,412.3457)">
          <path
             d="m 0,0 c 0.298,-0.52 0.684,-0.943 1.155,-1.272 0.471,-0.33 1.012,-0.575 1.624,-0.731 0.613,-0.157 1.248,-0.235 1.908,-0.235 0.47,0 0.965,0.055 1.482,0.165 0.519,0.11 0.991,0.282 1.415,0.518 0.424,0.235 0.775,0.549 1.059,0.942 0.283,0.391 0.424,0.886 0.424,1.483 0,1.004 -0.669,1.758 -2.002,2.261 -1.336,0.503 -3.194,1.004 -5.581,1.507 -0.973,0.219 -1.923,0.479 -2.849,0.778 -0.928,0.296 -1.751,0.69 -2.473,1.177 -0.723,0.485 -1.304,1.099 -1.743,1.837 -0.44,0.737 -0.659,1.641 -0.659,2.709 0,1.569 0.305,2.856 0.918,3.862 0.613,1.004 1.421,1.795 2.426,2.379 1.004,0.58 2.134,0.987 3.391,1.223 1.255,0.234 2.543,0.353 3.861,0.353 1.321,0 2.599,-0.127 3.839,-0.376 1.241,-0.252 2.347,-0.676 3.321,-1.272 0.973,-0.597 1.782,-1.391 2.424,-2.379 0.644,-0.989 1.029,-2.238 1.156,-3.744 l -6.359,0 C 8.643,12.472 8.155,13.344 7.276,13.8 6.397,14.254 5.361,14.483 4.168,14.483 3.791,14.483 3.383,14.458 2.944,14.412 2.505,14.365 2.104,14.262 1.743,14.104 1.383,13.946 1.075,13.72 0.825,13.422 0.573,13.123 0.449,12.724 0.449,12.221 c 0,-0.597 0.217,-1.082 0.658,-1.46 C 1.547,10.384 2.119,10.078 2.826,9.842 3.532,9.607 4.341,9.396 5.252,9.207 6.162,9.018 7.09,8.813 8.03,8.595 9.003,8.375 9.953,8.106 10.88,7.794 11.807,7.479 12.631,7.063 13.352,6.545 14.074,6.028 14.655,5.383 15.096,4.614 15.534,3.845 15.755,2.896 15.755,1.765 15.755,0.164 15.434,-1.178 14.79,-2.263 14.146,-3.345 13.306,-4.218 12.27,-4.877 11.233,-5.536 10.048,-5.999 8.714,-6.264 7.379,-6.531 6.021,-6.666 4.64,-6.666 c -1.413,0 -2.795,0.143 -4.145,0.424 -1.35,0.284 -2.552,0.753 -3.602,1.412 -1.053,0.662 -1.916,1.53 -2.591,2.616 -0.677,1.082 -1.045,2.44 -1.108,4.072 l 6.358,0 C -0.448,1.137 -0.298,0.517 0,0"
             style="fill:#ffffff;fill-opacity:1;fill-rule:nonzero;stroke:none"
             id="path3309"
             inkscape:connector-curvature="0" />
        </g>
        <g
           id="g3311"
           transform="translate(905.3867,415.5928)">
          <path
             d="m 0,0 c 0.189,-0.925 0.51,-1.757 0.966,-2.496 0.454,-0.737 1.059,-1.326 1.814,-1.766 0.753,-0.439 1.695,-0.659 2.824,-0.659 1.131,0 2.081,0.22 2.85,0.659 0.769,0.44 1.381,1.029 1.837,1.766 0.455,0.739 0.777,1.571 0.966,2.496 0.188,0.927 0.283,1.877 0.283,2.851 0,0.973 -0.095,1.932 -0.283,2.873 C 11.068,6.666 10.746,7.498 10.291,8.221 9.835,8.943 9.223,9.531 8.454,9.986 7.685,10.442 6.735,10.671 5.604,10.671 4.475,10.671 3.533,10.442 2.78,9.986 2.025,9.531 1.42,8.943 0.966,8.221 0.51,7.498 0.189,6.666 0,5.724 -0.188,4.783 -0.282,3.824 -0.282,2.851 -0.282,1.877 -0.188,0.927 0,0 m -6.076,8.149 c 0.597,1.586 1.444,2.936 2.544,4.051 1.098,1.115 2.417,1.979 3.957,2.592 1.537,0.611 3.264,0.917 5.179,0.917 1.917,0 3.651,-0.306 5.206,-0.917 1.553,-0.613 2.88,-1.477 3.98,-2.592 1.098,-1.115 1.945,-2.465 2.543,-4.051 0.596,-1.585 0.895,-3.351 0.895,-5.298 0,-1.947 -0.299,-3.705 -0.895,-5.274 -0.598,-1.572 -1.445,-2.914 -2.543,-4.028 -1.1,-1.115 -2.427,-1.971 -3.98,-2.569 -1.555,-0.593 -3.289,-0.893 -5.206,-0.893 -1.915,0 -3.642,0.3 -5.179,0.893 -1.54,0.598 -2.859,1.454 -3.957,2.569 -1.1,1.114 -1.947,2.456 -2.544,4.028 -0.596,1.569 -0.895,3.327 -0.895,5.274 0,1.947 0.299,3.713 0.895,5.298"
             style="fill:#ffffff;fill-opacity:1;fill-rule:nonzero;stroke:none"
             id="path3313"
             inkscape:connector-curvature="0" />
        </g>
        <g
           id="g3315"
           transform="translate(932.1631,412.3457)">
          <path
             d="m 0,0 c 0.297,-0.52 0.683,-0.943 1.152,-1.272 0.472,-0.33 1.014,-0.575 1.626,-0.731 0.613,-0.157 1.248,-0.235 1.907,-0.235 0.472,0 0.965,0.055 1.483,0.165 0.519,0.11 0.991,0.282 1.415,0.518 0.425,0.235 0.775,0.549 1.06,0.942 0.282,0.391 0.423,0.886 0.423,1.483 0,1.004 -0.669,1.758 -2.002,2.261 -1.335,0.503 -3.195,1.004 -5.581,1.507 -0.973,0.219 -1.922,0.479 -2.85,0.778 -0.926,0.296 -1.75,0.69 -2.473,1.177 -0.722,0.485 -1.303,1.099 -1.742,1.837 -0.44,0.737 -0.659,1.641 -0.659,2.709 0,1.569 0.305,2.856 0.919,3.862 0.612,1.004 1.419,1.795 2.425,2.379 1.004,0.58 2.134,0.987 3.391,1.223 1.256,0.234 2.543,0.353 3.862,0.353 1.32,0 2.598,-0.127 3.838,-0.376 1.241,-0.252 2.347,-0.676 3.322,-1.272 0.973,-0.597 1.781,-1.391 2.425,-2.379 0.643,-0.989 1.028,-2.238 1.154,-3.744 l -6.359,0 C 8.643,12.472 8.156,13.344 7.275,13.8 6.396,14.254 5.36,14.483 4.167,14.483 3.791,14.483 3.383,14.458 2.943,14.412 2.503,14.365 2.104,14.262 1.742,14.104 1.381,13.946 1.074,13.72 0.823,13.422 0.573,13.123 0.446,12.724 0.446,12.221 c 0,-0.597 0.22,-1.082 0.659,-1.46 C 1.546,10.384 2.118,10.078 2.824,9.842 3.532,9.607 4.34,9.396 5.251,9.207 6.161,9.018 7.089,8.813 8.029,8.595 9.003,8.375 9.952,8.106 10.878,7.794 11.806,7.479 12.63,7.063 13.352,6.545 c 0.721,-0.517 1.302,-1.162 1.743,-1.931 0.438,-0.769 0.66,-1.718 0.66,-2.849 0,-1.601 -0.322,-2.943 -0.967,-4.028 C 14.145,-3.345 13.305,-4.218 12.269,-4.877 11.231,-5.536 10.047,-5.999 8.713,-6.264 7.378,-6.531 6.02,-6.666 4.639,-6.666 c -1.413,0 -2.796,0.143 -4.145,0.424 -1.351,0.284 -2.553,0.753 -3.602,1.412 -1.053,0.662 -1.916,1.53 -2.592,2.616 -0.676,1.082 -1.044,2.44 -1.107,4.072 l 6.358,0 C -0.449,1.137 -0.301,0.517 0,0"
             style="fill:#ffffff;fill-opacity:1;fill-rule:nonzero;stroke:none"
             id="path3317"
             inkscape:connector-curvature="0" />
        </g>
        <g
           id="g3319"
           transform="translate(897.8213,431.2212)">
          <path
             d="m 0,0 0,-6.28 -4.897,-0.024 0,-10.871 c 0,-1.13 0.188,-1.887 0.565,-2.261 0.377,-0.378 1.13,-0.566 2.26,-0.566 0.377,0 0.738,0.016 1.084,0.047 0.346,0.031 0.675,0.078 0.988,0.141 l 0,-5.179 c -0.565,-0.097 -1.192,-0.158 -1.884,-0.189 -0.69,-0.032 -1.366,-0.049 -2.025,-0.049 -1.035,0 -2.017,0.071 -2.944,0.211 -0.925,0.144 -1.742,0.418 -2.448,0.826 -0.707,0.408 -1.265,0.989 -1.673,1.743 -0.408,0.753 -0.612,1.743 -0.612,2.967 l -0.009,13.18 -3.262,0.002 -1.839,6.317 5.11,0 0,6.642 6.689,0 L -4.897,0 0,0 z"
             style="fill:#ffffff;fill-opacity:1;fill-rule:nonzero;stroke:none"
             id="path3321"
             inkscape:connector-curvature="0" />
        </g>
        <g
           id="g3323"
           transform="translate(1047.0146,417.6211)">
          <path
             d="m 0,0 c -0.424,-0.142 -0.878,-0.26 -1.366,-0.354 -0.487,-0.096 -0.995,-0.172 -1.53,-0.236 -0.535,-0.063 -1.067,-0.141 -1.601,-0.236 -0.502,-0.093 -0.997,-0.219 -1.484,-0.376 -0.487,-0.156 -0.91,-0.369 -1.271,-0.636 -0.362,-0.267 -0.652,-0.604 -0.873,-1.011 -0.218,-0.41 -0.328,-0.927 -0.328,-1.556 0,-0.598 0.11,-1.101 0.328,-1.507 0.221,-0.409 0.518,-0.731 0.897,-0.965 0.376,-0.236 0.816,-0.4 1.318,-0.497 0.502,-0.09 1.019,-0.142 1.554,-0.142 1.319,0 2.339,0.223 3.06,0.662 0.724,0.439 1.257,0.966 1.603,1.579 0.345,0.611 0.558,1.231 0.636,1.86 0.078,0.628 0.118,1.129 0.118,1.507 l 0,2.495 C 0.777,0.337 0.426,0.141 0,0 m -13.212,9.445 c 0.691,1.034 1.572,1.867 2.638,2.494 1.068,0.627 2.267,1.076 3.605,1.341 1.334,0.267 2.675,0.401 4.026,0.401 1.223,0 2.464,-0.085 3.72,-0.259 C 2.034,13.247 3.18,12.911 4.217,12.411 5.254,11.908 6.1,11.209 6.759,10.313 7.419,9.418 7.75,8.233 7.75,6.757 l 0,-12.669 c 0,-1.098 0.062,-2.15 0.187,-3.156 0.125,-1.004 0.344,-1.756 0.66,-2.261 l -6.783,0 c -0.127,0.378 -0.228,0.763 -0.306,1.154 -0.08,0.392 -0.133,0.795 -0.165,1.202 -1.068,-1.099 -2.323,-1.867 -3.768,-2.309 -1.444,-0.44 -2.92,-0.659 -4.427,-0.659 -1.164,0 -2.247,0.143 -3.251,0.425 -1.004,0.282 -1.882,0.721 -2.636,1.319 -0.755,0.594 -1.343,1.349 -1.767,2.259 -0.424,0.913 -0.636,1.993 -0.636,3.252 0,1.379 0.244,2.519 0.729,3.412 0.487,0.896 1.116,1.611 1.885,2.144 0.768,0.534 1.647,0.935 2.636,1.201 0.992,0.268 1.988,0.479 2.992,0.635 1.004,0.159 1.994,0.283 2.969,0.377 0.972,0.097 1.836,0.236 2.59,0.426 0.752,0.187 1.35,0.461 1.788,0.823 0.441,0.361 0.646,0.887 0.614,1.58 0,0.72 -0.118,1.293 -0.354,1.717 C 0.472,8.054 0.158,8.381 -0.234,8.62 -0.628,8.855 -1.082,9.01 -1.602,9.089 -2.119,9.167 -2.677,9.208 -3.273,9.208 -4.591,9.208 -5.627,8.926 -6.381,8.361 -7.134,7.794 -7.575,6.852 -7.699,5.533 l -6.689,0 c 0.093,1.571 0.486,2.874 1.176,3.912"
             style="fill:#ffffff;fill-opacity:1;fill-rule:nonzero;stroke:none"
             id="path3325"
             inkscape:connector-curvature="0" />
        </g>
        <g
           id="g3327"
           transform="translate(1076.0518,421.4111)">
          <path
             d="M 0,0 C -0.22,0.944 -0.565,1.774 -1.036,2.498 -1.508,3.219 -2.098,3.792 -2.803,4.215 -3.509,4.64 -4.365,4.853 -5.369,4.853 -6.343,4.853 -7.191,4.64 -7.912,4.215 -8.637,3.792 -9.232,3.219 -9.702,2.498 -10.174,1.774 -10.521,0.944 -10.738,0 c -0.22,-0.942 -0.33,-1.93 -0.33,-2.967 0,-1.005 0.11,-1.977 0.33,-2.92 0.217,-0.943 0.564,-1.774 1.036,-2.497 0.47,-0.72 1.065,-1.294 1.79,-1.718 0.721,-0.423 1.569,-0.637 2.543,-0.637 1.004,0 1.86,0.214 2.566,0.637 0.705,0.424 1.295,0.998 1.767,1.718 0.471,0.723 0.816,1.554 1.036,2.497 0.22,0.943 0.33,1.915 0.33,2.92 C 0.33,-1.93 0.22,-0.942 0,0 m -10.834,18.511 0,-12.246 0.096,0 c 0.815,1.257 1.923,2.174 3.32,2.755 1.397,0.579 2.849,0.871 4.356,0.871 1.225,0 2.432,-0.251 3.626,-0.753 C 1.758,8.636 2.833,7.866 3.793,6.832 4.748,5.795 5.526,4.467 6.123,2.851 6.719,1.232 7.019,-0.692 7.019,-2.92 c 0,-2.228 -0.3,-4.154 -0.896,-5.768 -0.597,-1.62 -1.375,-2.945 -2.33,-3.981 -0.96,-1.035 -2.035,-1.805 -3.229,-2.31 -1.194,-0.5 -2.401,-0.752 -3.626,-0.752 -1.79,0 -3.39,0.284 -4.803,0.849 -1.414,0.564 -2.482,1.521 -3.203,2.873 l -0.095,0 0,-3.11 -6.358,0 0,33.63 6.687,0 z"
             style="fill:#ffffff;fill-opacity:1;fill-rule:nonzero;stroke:none"
             id="path3329"
             inkscape:connector-curvature="0" />
        </g>
        <g
           id="g3331"
           transform="translate(1100.6133,424.9443)">
          <path
             d="m 0,0 c -0.8,0.877 -2.017,1.319 -3.649,1.319 -1.069,0 -1.955,-0.182 -2.662,-0.542 -0.707,-0.361 -1.27,-0.81 -1.695,-1.343 -0.423,-0.534 -0.723,-1.098 -0.895,-1.697 -0.174,-0.594 -0.275,-1.129 -0.306,-1.598 l 10.88,0 C 1.358,-2.167 0.802,-0.879 0,0 m -7.558,-12.81 c 1.004,-0.974 2.449,-1.462 4.332,-1.462 1.351,0 2.513,0.338 3.487,1.014 0.972,0.676 1.568,1.389 1.79,2.142 l 5.886,0 c -0.942,-2.92 -2.387,-5.009 -4.333,-6.262 -1.948,-1.257 -4.303,-1.887 -7.064,-1.887 -1.917,0 -3.644,0.309 -5.181,0.919 -1.54,0.613 -2.842,1.484 -3.909,2.614 -1.069,1.132 -1.892,2.48 -2.474,4.051 -0.581,1.571 -0.872,3.297 -0.872,5.181 0,1.822 0.3,3.517 0.896,5.088 0.597,1.569 1.443,2.928 2.544,4.074 1.098,1.145 2.408,2.047 3.932,2.706 1.522,0.662 3.211,0.989 5.064,0.989 2.072,0 3.876,-0.4 5.415,-1.2 C 3.494,4.355 4.758,3.281 5.746,1.93 6.737,0.58 7.45,-0.959 7.89,-2.686 8.329,-4.412 8.487,-6.218 8.361,-8.1 l -17.568,0 c 0.094,-2.169 0.644,-3.737 1.649,-4.71"
             style="fill:#ffffff;fill-opacity:1;fill-rule:nonzero;stroke:none"
             id="path3333"
             inkscape:connector-curvature="0" />
        </g>
        <g
           id="g3335"
           transform="translate(1117.876,430.6431)">
          <path
             d="m 0,0 0,-4.52 0.094,0 c 0.312,0.751 0.736,1.45 1.271,2.094 0.534,0.643 1.148,1.194 1.837,1.651 0.691,0.452 1.427,0.806 2.214,1.055 0.785,0.254 1.555,0.448 2.4,0.379 C 8.215,0.627 8.215,0.627 8.619,0.532 l 1.734,-6.088 c -0.852,0 -1.633,0.016 -2.151,0.03 C 7.758,-5.517 7.332,-5.557 6.923,-5.557 5.699,-5.557 4.662,-5.762 3.814,-6.17 2.967,-6.578 2.283,-7.136 1.765,-7.841 1.246,-8.549 0.877,-9.372 0.659,-10.316 0.437,-11.257 0.328,-12.278 0.328,-13.376 l 0,-10.975 -6.687,0 L -6.359,0 0,0 z"
             style="fill:#ffffff;fill-opacity:1;fill-rule:nonzero;stroke:none"
             id="path3337"
             inkscape:connector-curvature="0" />
        </g>
        <g
           id="g3339"
           transform="translate(1154.1885,415.5947)">
          <path
             d="m 0,0 c 0.188,-0.925 0.509,-1.759 0.965,-2.496 0.456,-0.736 1.059,-1.326 1.814,-1.768 0.754,-0.438 1.695,-0.659 2.825,-0.659 1.13,0 2.08,0.221 2.85,0.659 0.769,0.442 1.381,1.032 1.837,1.768 0.456,0.737 0.776,1.571 0.965,2.496 0.189,0.925 0.283,1.874 0.283,2.849 0,0.972 -0.094,1.933 -0.283,2.874 -0.189,0.941 -0.509,1.773 -0.965,2.496 -0.456,0.722 -1.068,1.31 -1.837,1.766 -0.77,0.455 -1.72,0.684 -2.85,0.684 -1.13,0 -2.071,-0.229 -2.825,-0.684 C 2.024,9.529 1.421,8.941 0.965,8.219 0.509,7.496 0.188,6.664 0,5.723 -0.189,4.782 -0.282,3.821 -0.282,2.849 -0.282,1.874 -0.189,0.925 0,0 m -6.076,8.149 c 0.598,1.585 1.445,2.934 2.545,4.051 1.095,1.113 2.416,1.977 3.954,2.592 1.539,0.609 3.266,0.915 5.181,0.915 1.915,0 3.651,-0.306 5.205,-0.915 1.554,-0.615 2.88,-1.479 3.979,-2.592 1.101,-1.117 1.948,-2.466 2.544,-4.051 0.596,-1.587 0.896,-3.353 0.896,-5.3 0,-1.946 -0.3,-3.704 -0.896,-5.274 -0.596,-1.57 -1.443,-2.912 -2.544,-4.028 -1.099,-1.112 -2.425,-1.971 -3.979,-2.567 -1.554,-0.593 -3.29,-0.895 -5.205,-0.895 -1.915,0 -3.642,0.302 -5.181,0.895 -1.538,0.596 -2.859,1.455 -3.954,2.567 -1.1,1.116 -1.947,2.458 -2.545,4.028 -0.596,1.57 -0.896,3.328 -0.896,5.274 0,1.947 0.3,3.713 0.896,5.3"
             style="fill:#ffffff;fill-opacity:1;fill-rule:nonzero;stroke:none"
             id="path3341"
             inkscape:connector-curvature="0" />
        </g>
        <g
           id="g3343"
           transform="translate(1180.9629,412.3462)">
          <path
             d="m 0,0 c 0.298,-0.518 0.685,-0.943 1.154,-1.273 0.472,-0.329 1.014,-0.574 1.625,-0.729 0.614,-0.159 1.249,-0.239 1.909,-0.239 0.47,0 0.965,0.058 1.483,0.167 0.518,0.111 0.988,0.283 1.412,0.518 0.424,0.237 0.776,0.551 1.06,0.943 0.284,0.393 0.423,0.885 0.423,1.483 0,1.005 -0.668,1.758 -2.001,2.26 -1.336,0.503 -3.194,1.006 -5.58,1.509 -0.973,0.218 -1.924,0.479 -2.849,0.777 -0.928,0.296 -1.752,0.689 -2.473,1.176 -0.723,0.488 -1.306,1.1 -1.744,1.838 -0.44,0.737 -0.658,1.64 -0.658,2.708 0,1.569 0.304,2.857 0.917,3.862 0.612,1.005 1.421,1.796 2.427,2.377 1.004,0.583 2.132,0.99 3.39,1.228 1.257,0.234 2.543,0.351 3.862,0.351 1.319,0 2.599,-0.125 3.839,-0.379 1.241,-0.249 2.347,-0.672 3.322,-1.27 0.971,-0.596 1.78,-1.388 2.424,-2.378 0.643,-0.99 1.029,-2.237 1.155,-3.742 l -6.36,0 c -0.094,1.284 -0.581,2.157 -1.46,2.612 -0.878,0.455 -1.916,0.683 -3.107,0.683 -0.377,0 -0.786,-0.025 -1.227,-0.07 C 2.504,14.364 2.104,14.262 1.743,14.104 1.382,13.95 1.076,13.72 0.824,13.421 0.573,13.123 0.449,12.723 0.449,12.223 0.449,11.625 0.668,11.138 1.107,10.762 1.548,10.386 2.119,10.079 2.826,9.843 3.532,9.606 4.341,9.395 5.251,9.207 6.163,9.018 7.089,8.814 8.031,8.594 c 0.972,-0.221 1.922,-0.488 2.851,-0.8 0.924,-0.315 1.75,-0.729 2.471,-1.247 0.723,-0.518 1.302,-1.164 1.744,-1.932 0.439,-0.77 0.659,-1.719 0.659,-2.849 0,-1.603 -0.323,-2.945 -0.967,-4.027 -0.643,-1.085 -1.482,-1.955 -2.518,-2.614 -1.037,-0.659 -2.223,-1.123 -3.555,-1.39 -1.338,-0.268 -2.695,-0.402 -4.076,-0.402 -1.413,0 -2.793,0.144 -4.145,0.426 -1.35,0.282 -2.551,0.753 -3.602,1.41 -1.052,0.663 -1.917,1.532 -2.591,2.616 -0.676,1.084 -1.045,2.442 -1.106,4.075 l 6.358,0 C -0.446,1.138 -0.298,0.519 0,0"
             style="fill:#ffffff;fill-opacity:1;fill-rule:nonzero;stroke:none"
             id="path3345"
             inkscape:connector-curvature="0" />
        </g>
        <g
           id="g3347"
           transform="translate(1146.1816,431.2871)">
          <path
             d="m 0,0 0,-6.279 -4.897,-0.025 0,-10.871 c 0,-1.131 0.187,-1.886 0.565,-2.261 0.377,-0.378 1.129,-0.567 2.259,-0.567 0.379,0 0.739,0.018 1.087,0.049 0.344,0.03 0.674,0.079 0.986,0.14 l 0,-5.179 c -0.563,-0.096 -1.194,-0.157 -1.884,-0.189 -0.689,-0.032 -1.365,-0.049 -2.025,-0.049 -1.034,0 -2.018,0.07 -2.943,0.213 -0.925,0.143 -1.743,0.416 -2.45,0.825 -0.707,0.407 -1.263,0.989 -1.672,1.742 -0.408,0.754 -0.612,1.744 -0.612,2.967 l -0.008,13.18 -3.262,0.001 -1.839,6.318 5.109,0 0,6.642 6.689,0 L -4.897,0 0,0 z"
             style="fill:#ffffff;fill-opacity:1;fill-rule:nonzero;stroke:none"
             id="path3349"
             inkscape:connector-curvature="0" />
        </g>
        <g
           id="g3351"
           transform="translate(1017.0703,402.0737)">
          <path
             d="m 0,0 c 0,-3.084 -1.979,-5.876 -5.063,-5.876 l -13.974,0 -7.937,-7.83 -7.938,7.83 -13.971,0 c -3.086,0 -6.279,2.792 -6.279,5.876 l 0,33.735 c 0,3.084 3.193,5.744 6.279,5.744 l 43.82,0 C -1.979,39.479 0,36.819 0,33.735 L 0,0 z m -5.063,44.382 -43.82,0 c -5.791,0 -11.182,-4.857 -11.182,-10.647 l 0,-33.735 c 0,-5.79 5.391,-10.78 11.182,-10.78 l 11.25,0 10.66,-9.743 10.659,9.743 11.251,0 c 5.789,0 9.967,4.99 9.967,10.78 l 0,33.735 c 0,5.79 -4.178,10.647 -9.967,10.647"
             style="fill:#ffffff;fill-opacity:1;fill-rule:nonzero;stroke:none"
             id="path3353"
             inkscape:connector-curvature="0" />
        </g>
        <g
           id="g3355"
           transform="translate(992.0371,421.9272)">
          <path
             d="m 0,0 c -3.845,1.386 -5.41,2.37 -5.41,3.801 0,1.251 0.939,2.548 3.846,2.548 3.218,0 5.319,-1.028 6.438,-1.564 l 1.34,5.052 c -1.565,0.716 -3.575,1.386 -6.526,1.475 l 0,3.933 -4.382,0 0,-4.245 c -4.785,-0.897 -7.556,-3.979 -7.556,-7.959 0,-4.338 3.265,-6.573 8.047,-8.183 3.352,-1.116 4.785,-2.191 4.785,-3.887 0,-1.745 -1.744,-2.774 -4.337,-2.774 -2.905,0 -5.543,0.94 -7.422,1.967 l -1.342,-5.229 c 1.7,-0.94 4.605,-1.788 7.601,-1.923 l 0,-4.247 4.426,0 0,4.603 c 5.141,0.851 7.912,4.25 7.912,8.227 C 7.42,-4.337 5.321,-1.877 0,0"
             style="fill:#ffffff;fill-opacity:1;fill-rule:nonzero;stroke:none"
             id="path3357"
             inkscape:connector-curvature="0" />
        </g>
        <g
           id="g3359"
           transform="translate(999,374.5498)">
          <path
             d="m 0,0 c 0,-1.097 -1.069,-1.55 -2.274,-1.55 l -12.379,0 c -1.206,0 -2.347,-0.04 -2.347,1.332 l 0,3.108 c 0,1.096 0.743,1.56 2.347,1.56 l 12.379,0 C -1.069,4.45 0,3.986 0,2.89 L 0,0 z"
             style="fill:#ffffff;fill-opacity:1;fill-rule:nonzero;stroke:none"
             id="path3361"
             inkscape:connector-curvature="0" />
        </g>
      </g>
    </g>
  </g>
</svg>
